<?xml version="1.0" encoding="utf-8"?>
<svg class="logo" version="1.1" xmlns="http://www.w3.org/2000/svg" x="0px" y="0px" viewBox="215.161 103.632 452.435 378.177" width="170" height="90" style="enable-background:new 0 0 841.89 566.929;" preserveAspectRatio="none"><g id="BG"><rect y="0" style="fill:#FFFFFF;"/></g><g id="graphics"><g><g><path style="fill:#899196;" d="M254.614,434.273c-0.698-0.657-1.674-0.985-2.929-0.985c-0.897,0-1.684,0.189-2.361,0.567 c-0.678,0.378-1.241,0.877-1.689,1.495c-0.448,0.617-0.788,1.32-1.016,2.105c-0.23,0.789-0.344,1.591-0.344,2.407 c0,0.817,0.114,1.619,0.344,2.406c0.229,0.787,0.568,1.489,1.016,2.107c0.448,0.617,1.011,1.115,1.689,1.493 c0.677,0.38,1.464,0.568,2.361,0.568c0.578,0,1.125-0.109,1.643-0.328c0.518-0.22,0.976-0.523,1.375-0.912 c0.398-0.389,0.728-0.852,0.986-1.391c0.258-0.537,0.418-1.124,0.478-1.763h1.883c-0.259,1.873-0.947,3.332-2.062,4.379 c-1.116,1.046-2.551,1.568-4.304,1.568c-1.176,0-2.217-0.214-3.124-0.642c-0.907-0.429-1.669-1.012-2.287-1.749 c-0.618-0.736-1.086-1.599-1.405-2.585c-0.319-0.986-0.478-2.037-0.478-3.153c0-1.116,0.159-2.167,0.478-3.153 c0.319-0.986,0.787-1.848,1.405-2.586c0.617-0.737,1.379-1.324,2.287-1.764c0.906-0.438,1.947-0.657,3.124-0.657 c1.654,0,3.053,0.438,4.199,1.314c1.146,0.878,1.828,2.203,2.047,3.976h-1.883C255.789,435.838,255.311,434.931,254.614,434.273z "/><path style="fill:#899196;" d="M262.415,432.151v3.617h0.06c0.478-1.256,1.22-2.222,2.227-2.9 c1.006-0.676,2.207-0.985,3.601-0.926v1.883c-0.856-0.04-1.634,0.075-2.331,0.344c-0.698,0.268-1.3,0.653-1.808,1.15 c-0.508,0.499-0.902,1.092-1.181,1.778c-0.279,0.689-0.418,1.44-0.418,2.257v8.22h-1.883v-15.423H262.415z"/><path style="fill:#6c8290;" d="M270.948,442.479c0.189,0.727,0.493,1.38,0.912,1.958c0.418,0.578,0.946,1.056,1.584,1.434 c0.638,0.38,1.405,0.568,2.302,0.568c1.375,0,2.451-0.358,3.229-1.076c0.776-0.717,1.315-1.674,1.614-2.869h1.883 c-0.399,1.754-1.131,3.108-2.197,4.065c-1.066,0.956-2.576,1.434-4.528,1.434c-1.215,0-2.267-0.214-3.153-0.642 c-0.887-0.429-1.609-1.017-2.167-1.764c-0.558-0.747-0.971-1.613-1.241-2.601c-0.269-0.986-0.403-2.026-0.403-3.123 c0-1.017,0.135-2.013,0.403-2.989c0.27-0.977,0.683-1.848,1.241-2.615c0.558-0.767,1.28-1.385,2.167-1.853 c0.886-0.468,1.938-0.702,3.153-0.702c1.235,0,2.291,0.25,3.168,0.747c0.877,0.499,1.589,1.151,2.138,1.958 c0.547,0.807,0.941,1.733,1.181,2.779c0.239,1.047,0.338,2.108,0.299,3.184h-11.866 C270.664,441.049,270.758,441.751,270.948,442.479z M280.273,436.725c-0.23-0.657-0.553-1.24-0.971-1.749 c-0.419-0.508-0.927-0.915-1.525-1.225c-0.598-0.309-1.275-0.463-2.032-0.463c-0.777,0-1.465,0.154-2.062,0.463 c-0.598,0.31-1.106,0.717-1.525,1.225c-0.418,0.509-0.752,1.097-1.001,1.764c-0.25,0.668-0.414,1.351-0.493,2.048h9.983 C280.627,438.069,280.502,437.382,280.273,436.725z"/><path style="fill:#899196;" d="M285.46,434.543c0.318-0.658,0.751-1.195,1.3-1.614c0.548-0.419,1.19-0.728,1.928-0.927 c0.737-0.198,1.554-0.299,2.451-0.299c0.677,0,1.355,0.064,2.032,0.194c0.677,0.13,1.285,0.373,1.824,0.732 c0.538,0.358,0.976,0.861,1.315,1.51c0.338,0.647,0.508,1.489,0.508,2.525v8.189c0,0.758,0.369,1.137,1.106,1.137 c0.219,0,0.419-0.04,0.598-0.121v1.585c-0.22,0.04-0.414,0.07-0.583,0.089c-0.169,0.021-0.384,0.03-0.643,0.03 c-0.478,0-0.862-0.065-1.151-0.194c-0.289-0.13-0.514-0.314-0.672-0.553c-0.16-0.239-0.265-0.523-0.314-0.852 c-0.05-0.329-0.075-0.692-0.075-1.091h-0.06c-0.339,0.498-0.683,0.94-1.031,1.33c-0.349,0.389-0.738,0.713-1.166,0.971 c-0.429,0.26-0.917,0.459-1.465,0.598c-0.548,0.14-1.201,0.209-1.958,0.209c-0.717,0-1.39-0.084-2.018-0.254 c-0.627-0.168-1.176-0.438-1.643-0.807c-0.468-0.368-0.837-0.836-1.106-1.405c-0.269-0.567-0.404-1.239-0.404-2.018 c0-1.075,0.239-1.917,0.717-2.525c0.479-0.607,1.111-1.07,1.898-1.389c0.787-0.319,1.673-0.543,2.66-0.674 c0.986-0.129,1.988-0.254,3.004-0.373c0.399-0.04,0.748-0.09,1.046-0.149c0.299-0.06,0.548-0.164,0.747-0.314 c0.199-0.149,0.354-0.353,0.463-0.612c0.109-0.26,0.165-0.599,0.165-1.018c0-0.637-0.105-1.16-0.314-1.569 c-0.209-0.407-0.498-0.732-0.866-0.971c-0.369-0.239-0.798-0.403-1.286-0.493c-0.489-0.089-1.012-0.134-1.569-0.134 c-1.195,0-2.172,0.283-2.929,0.852c-0.757,0.567-1.156,1.479-1.195,2.734h-1.883C284.951,435.978,285.14,435.2,285.46,434.543z M294.874,439.146c-0.12,0.22-0.349,0.379-0.687,0.479c-0.339,0.1-0.638,0.169-0.897,0.209c-0.797,0.14-1.619,0.264-2.466,0.374 c-0.847,0.109-1.619,0.273-2.316,0.493c-0.697,0.22-1.27,0.533-1.719,0.94c-0.448,0.409-0.672,0.992-0.672,1.749 c0,0.478,0.094,0.902,0.284,1.27c0.189,0.369,0.443,0.688,0.762,0.956c0.319,0.271,0.688,0.474,1.106,0.613 c0.419,0.14,0.847,0.209,1.285,0.209c0.717,0,1.405-0.109,2.063-0.328c0.658-0.22,1.23-0.539,1.719-0.957 c0.488-0.418,0.876-0.926,1.165-1.525c0.289-0.598,0.434-1.274,0.434-2.033v-2.45H294.874z"/><path style="fill:#899196;" d="M306.71,432.151v1.585h-3.138v10.401c0,0.617,0.084,1.101,0.254,1.449 c0.169,0.349,0.593,0.543,1.27,0.583c0.539,0,1.076-0.029,1.614-0.09v1.584c-0.279,0-0.559,0.01-0.837,0.029 c-0.279,0.021-0.558,0.03-0.837,0.03c-1.255,0-2.132-0.243-2.63-0.732c-0.499-0.487-0.737-1.39-0.717-2.704v-10.551h-2.69v-1.585 h2.69v-4.633h1.883v4.633H306.71z"/><path style="fill:#899196;" d="M311.343,426.233v3.02h-1.883v-3.02H311.343z M311.343,432.151v15.423h-1.883v-15.423H311.343z"/><path style="fill:#899196;" d="M315.318,432.151l4.842,13.54h0.06l4.783-13.54h1.943l-5.769,15.423h-2.003l-5.948-15.423H315.318 z"/><path style="fill:#899196;" d="M330.188,442.479c0.189,0.727,0.493,1.38,0.912,1.958c0.418,0.578,0.946,1.056,1.584,1.434 c0.638,0.38,1.405,0.568,2.302,0.568c1.375,0,2.451-0.358,3.228-1.076c0.777-0.717,1.315-1.674,1.614-2.869h1.883 c-0.399,1.754-1.131,3.108-2.197,4.065c-1.066,0.956-2.576,1.434-4.528,1.434c-1.215,0-2.267-0.214-3.154-0.642 c-0.886-0.429-1.609-1.017-2.167-1.764c-0.558-0.747-0.972-1.613-1.241-2.601c-0.269-0.986-0.403-2.026-0.403-3.123 c0-1.017,0.135-2.013,0.403-2.989c0.269-0.977,0.683-1.848,1.241-2.615c0.557-0.767,1.28-1.385,2.167-1.853 c0.887-0.468,1.938-0.702,3.154-0.702c1.235,0,2.291,0.25,3.168,0.747c0.877,0.499,1.589,1.151,2.137,1.958 c0.548,0.807,0.941,1.733,1.181,2.779c0.239,1.047,0.339,2.108,0.299,3.184h-11.867 C329.904,441.049,329.999,441.751,330.188,442.479z M339.514,436.725c-0.229-0.657-0.553-1.24-0.971-1.749 c-0.419-0.508-0.927-0.915-1.525-1.225c-0.598-0.309-1.275-0.463-2.032-0.463c-0.777,0-1.465,0.154-2.063,0.463 c-0.598,0.31-1.106,0.717-1.524,1.225c-0.418,0.509-0.752,1.097-1.001,1.764c-0.25,0.668-0.414,1.351-0.494,2.048h9.983 C339.868,438.069,339.743,437.382,339.514,436.725z"/><path style="fill:#899196;" d="M354.503,426.233v8.847h0.06c0.199-0.557,0.483-1.046,0.852-1.464 c0.368-0.418,0.791-0.772,1.27-1.062c0.478-0.288,0.996-0.503,1.554-0.643c0.558-0.14,1.116-0.209,1.674-0.209 c1.175,0,2.197,0.22,3.064,0.657c0.866,0.439,1.589,1.032,2.167,1.779c0.578,0.746,1.006,1.614,1.285,2.6 c0.278,0.987,0.418,2.028,0.418,3.124c0,1.097-0.14,2.137-0.418,3.123c-0.279,0.987-0.708,1.854-1.285,2.601 c-0.578,0.747-1.301,1.335-2.167,1.764c-0.867,0.428-1.889,0.642-3.064,0.642c-1.255,0-2.376-0.288-3.362-0.866 s-1.699-1.405-2.137-2.48h-0.06v2.929h-1.733v-21.341H354.503z M364.681,437.487c-0.19-0.787-0.489-1.49-0.897-2.107 c-0.409-0.617-0.932-1.121-1.569-1.51c-0.638-0.389-1.405-0.582-2.302-0.582c-0.996,0-1.838,0.193-2.526,0.582 c-0.687,0.389-1.246,0.892-1.673,1.51c-0.429,0.617-0.738,1.32-0.927,2.107c-0.19,0.787-0.284,1.579-0.284,2.376 c0,0.797,0.094,1.589,0.284,2.376c0.189,0.787,0.498,1.489,0.927,2.107c0.428,0.617,0.986,1.12,1.673,1.509 c0.688,0.39,1.53,0.583,2.526,0.583c0.897,0,1.664-0.193,2.302-0.583c0.637-0.389,1.16-0.892,1.569-1.509 c0.408-0.618,0.707-1.32,0.897-2.107c0.189-0.787,0.284-1.579,0.284-2.376C364.965,439.066,364.87,438.275,364.681,437.487z"/><path style="fill:#899196;" d="M371.166,442.479c0.19,0.727,0.494,1.38,0.912,1.958c0.419,0.578,0.947,1.056,1.585,1.434 c0.638,0.38,1.405,0.568,2.302,0.568c1.374,0,2.451-0.358,3.228-1.076c0.777-0.717,1.315-1.674,1.614-2.869h1.883 c-0.399,1.754-1.131,3.108-2.197,4.065c-1.066,0.956-2.576,1.434-4.528,1.434c-1.216,0-2.268-0.214-3.154-0.642 c-0.887-0.429-1.609-1.017-2.167-1.764c-0.558-0.747-0.972-1.613-1.241-2.601c-0.269-0.986-0.404-2.026-0.404-3.123 c0-1.017,0.135-2.013,0.404-2.989c0.269-0.977,0.683-1.848,1.241-2.615c0.557-0.767,1.28-1.385,2.167-1.853 c0.886-0.468,1.938-0.702,3.154-0.702c1.235,0,2.291,0.25,3.168,0.747c0.876,0.499,1.589,1.151,2.137,1.958 c0.548,0.807,0.941,1.733,1.181,2.779c0.239,1.047,0.339,2.108,0.299,3.184h-11.866 C370.882,441.049,370.977,441.751,371.166,442.479z M380.492,436.725c-0.23-0.657-0.553-1.24-0.971-1.749 c-0.418-0.508-0.927-0.915-1.524-1.225c-0.598-0.309-1.275-0.463-2.032-0.463c-0.777,0-1.465,0.154-2.063,0.463 c-0.598,0.31-1.106,0.717-1.525,1.225c-0.418,0.509-0.752,1.097-1,1.764c-0.25,0.668-0.414,1.351-0.494,2.048h9.983 C380.846,438.069,380.721,437.382,380.492,436.725z"/><path style="fill:#899196;" d="M385.678,434.543c0.318-0.658,0.751-1.195,1.3-1.614c0.548-0.419,1.191-0.728,1.928-0.927 c0.737-0.198,1.554-0.299,2.451-0.299c0.677,0,1.355,0.064,2.032,0.194c0.678,0.13,1.286,0.373,1.824,0.732 c0.538,0.358,0.976,0.861,1.315,1.51c0.339,0.647,0.508,1.489,0.508,2.525v8.189c0,0.758,0.368,1.137,1.106,1.137 c0.219,0,0.418-0.04,0.598-0.121v1.585c-0.219,0.04-0.413,0.07-0.582,0.089c-0.17,0.021-0.384,0.03-0.643,0.03 c-0.478,0-0.862-0.065-1.151-0.194c-0.289-0.13-0.513-0.314-0.672-0.553c-0.16-0.239-0.265-0.523-0.314-0.852 c-0.05-0.329-0.075-0.692-0.075-1.091h-0.06c-0.339,0.498-0.683,0.94-1.031,1.33c-0.349,0.389-0.737,0.713-1.165,0.971 c-0.429,0.26-0.917,0.459-1.464,0.598c-0.548,0.14-1.201,0.209-1.958,0.209c-0.717,0-1.39-0.084-2.018-0.254 c-0.628-0.168-1.176-0.438-1.644-0.807c-0.468-0.368-0.836-0.836-1.106-1.405c-0.269-0.567-0.403-1.239-0.403-2.018 c0-1.075,0.239-1.917,0.717-2.525c0.478-0.607,1.11-1.07,1.898-1.389c0.787-0.319,1.674-0.543,2.66-0.674 c0.986-0.129,1.988-0.254,3.004-0.373c0.398-0.04,0.747-0.09,1.046-0.149c0.299-0.06,0.548-0.164,0.747-0.314 c0.199-0.149,0.354-0.353,0.464-0.612c0.109-0.26,0.164-0.599,0.164-1.018c0-0.637-0.105-1.16-0.313-1.569 c-0.209-0.407-0.498-0.732-0.867-0.971c-0.369-0.239-0.798-0.403-1.285-0.493c-0.489-0.089-1.012-0.134-1.57-0.134 c-1.195,0-2.171,0.283-2.929,0.852c-0.757,0.567-1.155,1.479-1.195,2.734h-1.883C385.17,435.978,385.359,435.2,385.678,434.543z M395.093,439.146c-0.12,0.22-0.349,0.379-0.688,0.479c-0.339,0.1-0.638,0.169-0.897,0.209c-0.797,0.14-1.619,0.264-2.466,0.374 c-0.847,0.109-1.619,0.273-2.316,0.493c-0.697,0.22-1.27,0.533-1.719,0.94c-0.448,0.409-0.672,0.992-0.672,1.749 c0,0.478,0.094,0.902,0.284,1.27c0.189,0.369,0.443,0.688,0.762,0.956c0.319,0.271,0.687,0.474,1.106,0.613 c0.418,0.14,0.847,0.209,1.285,0.209c0.717,0,1.405-0.109,2.063-0.328c0.658-0.22,1.23-0.539,1.718-0.957 c0.488-0.418,0.877-0.926,1.166-1.525c0.288-0.598,0.433-1.274,0.433-2.033v-2.45H395.093z"/><path style="fill:#899196;" d="M411.563,447.574v-2.779h-0.06c-0.499,1.036-1.221,1.828-2.167,2.376 c-0.947,0.548-1.998,0.821-3.153,0.821c-0.977,0-1.808-0.134-2.496-0.403c-0.688-0.268-1.246-0.652-1.674-1.15 c-0.428-0.498-0.743-1.105-0.941-1.823c-0.2-0.717-0.299-1.533-0.299-2.45v-10.014h1.883v10.043 c0.039,1.396,0.363,2.451,0.971,3.168c0.608,0.718,1.659,1.076,3.153,1.076c0.817,0,1.514-0.174,2.092-0.523 c0.578-0.348,1.056-0.811,1.434-1.389c0.379-0.578,0.658-1.241,0.837-1.988c0.179-0.747,0.269-1.51,0.269-2.286v-8.101h1.883 v15.423H411.563z"/><path style="fill:#899196;" d="M422.98,432.151v1.585h-3.139v10.401c0,0.617,0.085,1.101,0.253,1.449 c0.169,0.349,0.593,0.543,1.271,0.583c0.537,0,1.075-0.029,1.614-0.09v1.584c-0.28,0-0.559,0.01-0.838,0.029 c-0.279,0.021-0.558,0.03-0.837,0.03c-1.256,0-2.132-0.243-2.63-0.732c-0.498-0.487-0.737-1.39-0.717-2.704v-10.551h-2.69v-1.585 h2.69v-4.633h1.883v4.633H422.98z"/><path style="fill:#899196;" d="M425.969,432.151l5.081,13.151l4.753-13.151h1.883l-6.696,17.754 c-0.278,0.658-0.537,1.2-0.776,1.63c-0.239,0.428-0.504,0.767-0.792,1.017c-0.289,0.248-0.628,0.427-1.017,0.537 c-0.388,0.109-0.881,0.165-1.48,0.165c-0.378-0.021-0.672-0.035-0.882-0.045c-0.209-0.011-0.393-0.045-0.553-0.105v-1.585 c0.22,0.04,0.434,0.075,0.643,0.105c0.209,0.03,0.424,0.045,0.643,0.045c0.419,0,0.763-0.06,1.031-0.179 c0.27-0.12,0.504-0.284,0.702-0.493c0.2-0.209,0.369-0.463,0.508-0.762c0.141-0.3,0.289-0.629,0.449-0.987l0.657-1.733 l-6.157-15.363H425.969z"/></g></g><g><g><path style="fill:#991554;" d="M455.559,333.962c9.323-0.741,22.988,4.638,45.376,34.767 c17.272,23.241,21.712,31.059,18.711,33.741c-4.146,3.708-9.857-5.473-30.897-32.271c-16.743-21.326-28.392-18.202-35.314-21.22 C444.734,345.184,447.52,334.604,455.559,333.962z"/><path style="fill:#991554;" d="M424.199,301.023c0.488-1.059,1.556-2.261,6.158-1.223c6.66,1.502,13.252,6.878,18.936,17.872 c5.09,9.852,5.749,13.005,4.9,13.464c-0.886,0.475-2.938-3.889-5.757-9.483c-3.403-6.756-8.346-13.133-17.715-15.225 C424.648,305.073,423.441,302.66,424.199,301.023z"/><path style="fill:#991554;" d="M414.675,314.523c0.121-1.108,0.723-2.522,5.211-2.978c6.493-0.662,14.1,2.212,22.591,10.45 c7.605,7.382,9.161,10.039,8.527,10.712c-0.655,0.701-3.84-2.628-8.092-6.846c-5.141-5.088-11.556-9.37-20.683-8.42 C416.315,318.058,414.489,316.239,414.675,314.523z"/></g><g><path style="fill:#FFCCDF;" d="M497.427,290.442c-2.329,24.007-1.009,61.42,22.554,81.805 c23.562,20.384,49.369,12.414,69.165,37.647c19.794,25.243,17.2,24.064,27.047,25.094c9.843,1.033,21.281-16.591,4.743-26.284 c-16.535-9.694-23.654-22.927-23.33-34.656c0.325-11.73-4.539-32.685-40.192-29.183c-35.653,3.499-24.402-12.327-17.531-19.212 c6.873-6.88,29.519-27.85,41.749-65.112c11.805-35.961-7.851-66.692-33.192-73.511c-29.508-7.939-49.957-6.307-44.57-23.672 c8.748-28.218,4.028-45.359-12.973-43.704c-19.001,1.853-13.686,27.509-7.704,45.881 C488.803,182.772,501.926,244.045,497.427,290.442z"/><path style="fill:#E35991;" d="M593.155,400.239c-2.622-6.816-14.561-25.047-15.295-26.199 c-10.974-17.274-17.49-23.092-37.827-21.798c-15.434,0.984-20.562-3.688-11.315-15.764c3.523-4.682,31.717-36.795,29.68-68.299 c-1.241-13.581-5.365-25.318-15.397-32.649c-27.364-19.993-44.143-6.212-45.863,7.552c1.357,16.021,1.734,32.456,0.29,47.36 c-2.329,24.007-1.009,61.42,22.554,81.805c21.959,18.996,45.846,13.389,65.046,32.94 C590.237,410.495,595.694,406.84,593.155,400.239z"/><path style="fill:#F792BA;" d="M602.516,400.124c-5.945-11.592-15.963-35.268-29.62-45.983 c-5.822-4.568-14.988-5.658-24.172-5.586c-12.994,0.098-18.515-0.959-19.988-4.364c-3.62-8.36,21.434-26.288,36.752-59.845 c1.035-2.268,1.87-4.673,2.724-7.116c10.497-29.838-8.79-61.772-28.224-71.735c-25.925-13.293-48.262-6.703-44.992,17.993 c0.755,5.704,1.655,14.939,2.117,19.806c1.575-13.833,18.385-27.857,45.888-7.763c16.744,12.238,27.617,47.836-9.847,95.331 c-0.009,0.012-0.019,0.026-0.03,0.036c-3.648,4.72-11.196,12.815-8.409,17.748c2.203,3.687,9.386,3.863,13.68,3.68 c21.432-0.811,25.734,1.758,39.467,21.715c1.944,2.771,7.195,11.174,11.063,17.972c1.145,1.991,3.483,6.072,4.232,8.227 c2.095,6.031-1.352,9.385-7.251,5.839C601.602,424.233,610.658,416.001,602.516,400.124z"/><path style="fill:#BF3272;" d="M531.347,355.934c-6.612,0.848-10.31-1.304-11.318-4.147c-0.89-2.512,0.419-5.439,1.609-7.87 c0,0,9.283-16.086,18.311-34.239c3.166-6.365,7.725-22.261,0.44-34.006c-12.453-20.083-27.928-17.304-34.279-11.98 c-8.374,7.024-8.05,19.5-8.684,26.752c-2.213,25.332-1.009,61.42,22.554,81.805c16.935,14.647,35.027,14.653,51.217,22.864 c8.866,3.359,3.397-10.114-0.416-17.303C565.092,367.089,560.097,352.236,531.347,355.934z"/><path style="fill:#991554;" d="M559.435,378.259c-0.171-7.747-10.757-17.699-18.928-18.523 c-8.168-0.824-22.93,2.422-24.831-4.148c-1.901-6.567,2.786-12.66,10.706-25.647c7.925-12.988,9.814-21.024,3.035-30.451 c-9.722-13.525-23.831-9.894-26.818,5.668c-1.988,10.353-0.08,31.409,0.66,37.008c1.51,11.407,5.972,20.814,15.419,27.92 C530.208,378.757,559.625,386.936,559.435,378.259z"/></g><g><path style="fill:#FFCCDF;" d="M494.852,349.807c-7.584-18.867-9.217-39.461-9.256-53.357 c-0.079-27.762-4.276-65.284-23.123-77.981c-8.072-5.44-16.912-2.133-24.691-1.618c-8.305,0.549-13.457-1.425-15.45-10.099 c-6.277-27.294-18.173-40.482-31.091-33.301c-14.432,8.023,1.967,28.352,15.46,42.171c12.662,12.966,52.17,61.37,70.454,102.899 C481.273,327.889,487.156,339.212,494.852,349.807z"/><path style="fill:#E35991;" d="M438.729,254.876c14.067,19.214,29.038,42.331,38.424,63.646c0.234,0.537,0.499,1.103,0.745,1.65 c-0.852-4.044-4.535-18.386-8.348-31.503c-5.624-19.354-12.294-31.546-24.138-33.773 C442.372,254.324,440.236,254.503,438.729,254.876z"/><path style="fill:#F792BA;" d="M473.842,283.997c-3.827-27.145-13.565-48.628-29.166-53.638 c-10.989-3.529-17.754,0.804-19.718,6.499c4.316,5.401,8.992,11.484,13.771,18.013c0.015-0.002,0.031-0.003,0.049-0.007 c1.505-0.363,3.626-0.535,6.635,0.033c11.844,2.227,18.514,14.419,24.138,33.773c3.816,13.136,7.506,27.498,8.353,31.522 c3.056,6.757,7.002,14.4,11.834,22.012c0.012-0.025,0.024-0.057,0.035-0.085C480.313,325.769,476.236,301.004,473.842,283.997z"/></g></g><g><g><path style="fill:#808E91;" d="M253.719,374.803v10.911c1-1.728,2.455-3.138,4.364-4.228c1.637-0.907,3.636-1.364,6.001-1.364 c4.273,0,7.774,1.772,10.502,5.319c2.728,3.546,4.092,8.139,4.092,13.775c0,5.639-1.364,10.228-4.092,13.774 c-1.364,1.729-3.206,2.979-5.523,3.751c-2.319,0.771-4.616,1.159-6.888,1.159c-4.365,0-8.412-1.136-12.138-3.409 c-3.73-2.272-5.592-6.637-5.592-13.093v-31.233h4.637c1.272,0,2.364,0.456,3.273,1.364 C253.263,372.439,253.719,373.53,253.719,374.803z M269.268,398.807c0-3.274-0.682-5.818-2.046-7.639 c-1.364-1.908-3.228-2.864-5.592-2.864c-2.546,0-4.5,0.911-5.864,2.728c-1.364,1.909-2.046,4.5-2.046,7.774 c0,3.818,0.635,6.593,1.909,8.319c1.364,1.909,3.274,2.864,5.728,2.864c2.545,0,4.501-0.955,5.865-2.864 C268.585,405.217,269.268,402.443,269.268,398.807z"/><path style="fill:#808E91;" d="M313.353,380.94v21.276c0,6.457-1.684,10.685-5.046,12.684c-3.365,2-7.047,3-11.047,3 c-3.911-0.184-7.48-1.272-10.707-3.273c-3.229-1.999-4.842-6.137-4.842-12.411V380.94h9.547v23.186 c0,2.182,0.635,3.773,1.91,4.772c1.272,1.002,2.727,1.501,4.364,1.501c1.636,0,3.113-0.499,4.432-1.501 c1.317-0.999,1.978-2.591,1.978-4.772v-18.549c0-1.273,0.431-2.364,1.295-3.273c0.863-0.908,1.978-1.364,3.342-1.364H313.353z"/><path style="fill:#808E91;" d="M332.343,417.219c-3,0.181-6.253,0.136-9.751-0.136c-3.501-0.273-5.251-2.501-5.251-6.684v-40.099 h4.91c1.181,0,2.227,0.457,3.137,1.364c0.908,0.91,1.364,2.001,1.364,3.273v6.138h5.592v1.909c0,1.364-0.456,2.478-1.364,3.342 c-0.909,0.864-2.001,1.295-3.273,1.295h-0.955v20.186c0,1.547,0.908,2.318,2.728,2.318h2.864V417.219z"/><path style="fill:#808E91;" d="M350.652,417.219c-3,0.181-6.253,0.136-9.751-0.136c-3.502-0.273-5.25-2.501-5.25-6.684v-40.099 h4.91c1.181,0,2.227,0.457,3.136,1.364c0.909,0.91,1.364,2.001,1.364,3.273v6.138h5.592v1.909c0,1.364-0.456,2.478-1.363,3.342 c-0.911,0.864-2.002,1.295-3.274,1.295h-0.954v20.186c0,1.547,0.908,2.318,2.729,2.318h2.863V417.219z"/><path style="fill:#808E91;" d="M378.099,406.034h6.819c-1.001,3.82-2.911,6.73-5.728,8.729 c-2.819,2.092-6.366,3.137-10.639,3.137c-5.183,0-9.23-1.682-12.139-5.046c-2.911-3.273-4.364-7.955-4.364-14.048 c0-5.818,1.409-10.365,4.229-13.639c2.908-3.363,6.956-5.047,12.139-5.047c5.455,0,9.683,1.637,12.683,4.91 c2.909,3.365,4.364,8.047,4.364,14.048c0,0.364,0,0.682,0,0.955c0,0.272,0,0.455,0,0.546c0,0.455-0.047,0.773-0.136,0.954 h-23.595c0.089,2.819,0.771,4.91,2.046,6.274c1.18,1.455,2.953,2.182,5.318,2.182c1.545,0,2.864-0.318,3.955-0.955 c0.273-0.09,0.523-0.249,0.751-0.477c0.226-0.226,0.478-0.477,0.751-0.749c0.089-0.273,0.43-0.636,1.022-1.092 C376.165,406.264,377.007,406.034,378.099,406.034z M361.732,395.397h13.911c-0.183-2.455-0.818-4.272-1.909-5.455 c-1.183-1.272-2.864-1.909-5.047-1.909c-2.001,0-3.637,0.637-4.909,1.909C362.503,391.216,361.821,393.033,361.732,395.397z"/><path style="fill:#808E91;" d="M388.359,417.219v-17.595c0-3.546,0.522-6.523,1.568-8.933c1.044-2.408,2.477-4.341,4.296-5.796 c1.726-1.364,3.75-2.364,6.069-3.002c2.318-0.634,4.705-0.954,7.161-0.954c0.181,0,0.409,0,0.682,0c0.273,0,0.499,0,0.682,0 v9.684h-3.136c-2.639,0-4.593,0.638-5.866,1.909c-1.274,1.274-1.909,3.273-1.909,6.002v18.685H388.359z"/><path style="fill:#808E91;" d="M411.169,417.219v-37.37c0-3.273,0.864-5.728,2.592-7.365c1.637-1.545,4.317-2.318,8.046-2.318 c0.908,0,1.636,0.047,2.182,0.136c0.999,0,1.772,0.047,2.318,0.137v7.502h-2.455c-1.273,0-2.182,0.183-2.728,0.546 c-0.455,0.363-0.681,1.09-0.681,2.182v2.455h5.864v2.046c0,1.363-0.456,2.479-1.364,3.341c-0.909,0.865-1.956,1.297-3.136,1.297 h-1.364v27.413H411.169z"/><path style="fill:#808E91;" d="M428.795,370.301h4.91c1.272,0,2.364,0.433,3.274,1.297c0.907,0.865,1.363,1.933,1.363,3.205 v42.416h-9.548V370.301z"/><path style="fill:#808E91;" d="M446.559,430.039v-7.502h2.592c1.818,0,3.25-0.433,4.297-1.295 c1.043-0.865,1.248-2.251,0.613-4.159l-12.684-36.143h10.502l7.365,25.641l6.41-22.367c0.545-2.182,1.999-3.273,4.364-3.273 h6.546l-13.911,41.325c-1.092,3.001-2.454,5.136-4.092,6.41c-1.636,1.091-4.319,1.637-8.047,1.637c-0.272,0-0.592,0-0.954,0 c-0.364,0-0.682,0-0.955,0c-0.272-0.092-0.613-0.16-1.023-0.205C447.173,430.061,446.832,430.039,446.559,430.039z"/></g></g></g></svg>